# xmcd CD database file
#
# Track frame offsets:
#	182
#	11390
#	24040
#	33605
#	43347
#	49747
#	65480
#	78765
#	89837
#	100392
#	109192
#	119592
#	129115
#	143347
#
# Disc length: 2055 seconds
#
# Revision: 4
# Processed by: cddbd v1.5.2PL0 Copyright (c) Steve Scherf et al.
# Submitted via: CDex 1.70beta2
#
DISCID=b208050e
DTITLE=Eric Clapton - Blues Power
DYEAR=1996
DGENRE=Blues
TTITLE0=Snake Drive
TTITLE1=Freightloader
TTITLE2=West Coast Idea
TTITLE3=I'm Your Witch Doctor
TTITLE4=Chocker
TTITLE5=Louise
TTITLE6=You Can't Judge a Book by Looking at the Cover
TTITLE7=Boom Boom
TTITLE8=Honey in your Hips
TTITLE9=Talkin' About You
TTITLE10=Putty (In your Hands)
TTITLE11=Tribute to Elmore
TTITLE12=Draggin' My Tail
TTITLE13=Miles Road
EXTD=YEAR: 1996
EXTT0=
EXTT1=
EXTT2=
EXTT3=
EXTT4=
EXTT5=
EXTT6=
EXTT7=
EXTT8=
EXTT9=
EXTT10=
EXTT11=
EXTT12=
EXTT13=
PLAYORDER=
